<?xml version="1.0" encoding="UTF-8"?>
<svg xmlns="http://www.w3.org/2000/svg" xmlns:xlink="http://www.w3.org/1999/xlink" version="1.1" viewBox="0 0 128 128">
  <defs>
    <style>
      .cls-1 {
        fill: url(#linear-gradient);
      }

      .cls-2 {
        fill: #1e1e1e;
      }

      .cls-3 {
        fill: #fff;
      }

      .cls-4 {
        fill: none;
        stroke: #ff8aa6;
        stroke-miterlimit: 10;
        stroke-width: 1.2px;
      }

      .cls-5 {
        display: none;
      }

      .cls-6 {
        fill: #f2eee2;
      }

      .cls-7 {
        fill: #007cba;
      }
    </style>
    <linearGradient id="linear-gradient" x1="43.9" y1="74.6" x2="83.1" y2="74.6" gradientUnits="userSpaceOnUse">
      <stop offset="0" stop-color="#ed1f48"/>
      <stop offset="1" stop-color="#f8ae99"/>
    </linearGradient>
  </defs>
  <!-- Generator: Adobe Illustrator 28.6.0, SVG Export Plug-In . SVG Version: 1.2.0 Build 709)  -->
  <g>
    <g id="Plugin_Detail">
      <rect class="cls-6" width="128" height="128"/>
      <rect class="cls-2" width="128" height="35"/>
      <g>
        <rect class="cls-7" y="0" width="30" height="35"/>
        <path class="cls-3" d="M14.1,17.5l3.6,4.9h-1.9l-3.6-4.9,3.6-4.9h1.9l-3.6,4.9Z"/>
      </g>
      <g>
        <rect class="cls-7" x="98" y="0" width="30" height="35" transform="translate(226 35) rotate(180)"/>
        <path class="cls-3" d="M113.9,17.5l-3.6-4.9h1.9l3.6,4.9-3.6,4.9h-1.9l3.6-4.9Z"/>
      </g>
      <g>
        <path class="cls-1" d="M63.5,55c-10.8,0-19.6,8.8-19.6,19.6s8.8,19.6,19.6,19.6,19.6-8.8,19.6-19.6-8.8-19.6-19.6-19.6ZM63.5,90.9c-9,0-16.3-7.3-16.3-16.3s7.3-16.3,16.3-16.3,16.3,7.3,16.3,16.3-7.3,16.3-16.3,16.3Z"/>
        <path class="cls-2" d="M92.2,74.5v-.4h-39.9v.4h0s0,0,0,0v.4h0c.2,6,5.1,10.8,11.2,10.8s8.3-2.5,10.1-6.3c-.6.1-1.1.2-1.7.2-3-.2-5.3-1.8-6.3-4.5h8.9c1.8,0,5.3-.5,7.7,1.5s2.6,6.2,1.8,8.1c-3.8,7.5-11.5,12.7-20.4,12.7s-22.7-10.1-22.9-22.5v-.8h-8.9c3.1,1.8,3.1,4,3.9,7h0c3,12.6,14.4,22.1,27.9,22.1s28.4-12.6,28.6-28.2h0v-.4s0,0,0,0h0Z"/>
      </g>
    </g>
    <g id="Circle-Lines" class="cls-5">
      <line class="cls-4" x1="-330.2" y1="212.7" x2="439.2" y2="212.7"/>
      <line class="cls-4" x1="99.7" y1="225.8" x2="439.1" y2="225.8"/>
      <circle class="cls-4" cx="182.6" cy="193.8" r="88.7"/>
      <circle class="cls-4" cx="-369.2" cy="284.8" r="82"/>
      <circle class="cls-4" cx="256.3" cy="311.1" r="85.4"/>
      <circle class="cls-4" cx="73.7" cy="219" r="142.3"/>
      <circle class="cls-4" cx="73.4" cy="219" r="289.3"/>
      <circle class="cls-4" cx="73.4" cy="219" r="249"/>
      <circle class="cls-4" cx="73.4" cy="219" r="206.8"/>
      <circle class="cls-4" cx="73.4" cy="216.6" r="365.8"/>
    </g>
  </g>
</svg>